<?xml version="1.0" encoding="utf-8"?>
<!DOCTYPE svg PUBLIC "-//W3C//DTD SVG 1.1//EN" "http://www.w3.org/Graphics/SVG/1.1/DTD/svg11.dtd">
<svg version="1.1" id="Layer_1" xmlns="http://www.w3.org/2000/svg" xmlns:xlink="http://www.w3.org/1999/xlink" x="0px" y="0px"
	 viewBox="0 0 24 24" xml:space="preserve">
<path style="fill:#FFFFFF;" d="M22,6.5c0,2.2-1.9,3.2-3.7,3c-0.7-0.1-1.3-0.3-2-0.5c-0.6-0.2-1.1,0-1.6,0.3
	c-0.2,0.1-0.6,0.3-0.5,0.6c0.1,0.3,0.3,0.6,0.7,0.6c0.8,0.1,1.6,0.2,2.4,0.5c3.4,1.1,5.4,4.8,4.4,7.9c-0.6,1.8-2.2,3-4.1,3.1
	c-2,0.1-3.5-1.7-3.1-3.7c0.1-0.7,0.3-1.3,0.5-2c0.1-0.5,0-0.9-0.2-1.3c-0.2-0.3-0.3-0.7-0.7-0.6c-0.4,0.1-0.6,0.4-0.7,0.8
	c-0.1,0.7-0.2,1.5-0.4,2.2c-1.1,3.4-4.9,5.5-8,4.4c-1.8-0.6-2.9-2.2-3-4c-0.1-2,1.7-3.5,3.7-3.1c0.7,0.1,1.3,0.3,2,0.5
	c0.5,0.1,1,0,1.5-0.2c0.2-0.1,0.6-0.3,0.5-0.6c-0.1-0.3-0.3-0.6-0.7-0.7c-0.8-0.1-1.5-0.2-2.3-0.5c-3.7-1.1-5.3-5.2-4.4-8
	c0.6-1.8,2.2-3,4-3c2-0.1,3.5,1.6,3.2,3.6C9.4,6.3,9.2,7,9,7.7C8.8,8.3,9,8.8,9.3,9.3c0.1,0.2,0.3,0.6,0.6,0.4
	c0.3-0.1,0.5-0.3,0.6-0.7c0.1-0.8,0.2-1.6,0.5-2.4c1.1-3.4,4.9-5.4,8-4.4C20.8,2.9,22,4.6,22,6.5z M12,10.8c-0.7,0-1.2,0.6-1.2,1.3
	c0,0.7,0.6,1.2,1.2,1.2c0.7,0,1.2-0.5,1.2-1.2C13.3,11.4,12.7,10.8,12,10.8z"/>
</svg>
