<?xml version="1.0" encoding="utf-8"?>
<!DOCTYPE svg PUBLIC "-//W3C//DTD SVG 1.1//EN" "http://www.w3.org/Graphics/SVG/1.1/DTD/svg11.dtd">
<svg version="1.1" id="Layer_1" xmlns="http://www.w3.org/2000/svg" xmlns:xlink="http://www.w3.org/1999/xlink" x="0px" y="0px"
	 viewBox="0 0 16 16" xml:space="preserve">
  <g class="base">
    <path d="M14.2,12.9c-0.7,0.5-0.9,1.2-1.3,1.8c-0.1-1.1,0.1-2.1,0.5-3.1c-0.9,0.9-1.4,2-1.7,3.2c-0.1-0.9-0.2-1.8,0.2-2.7
	c-0.9,0.7-1.2,1.6-1.6,2.5c-0.1-1.3,0.2-2.6,0.7-3.8c-0.2,0.2-0.4,0.4-0.6,0.6c-0.6,0.7-0.9,1.5-1.3,2.2c0-0.8,0-1.7-0.1-2.5
	c0-0.4,0.1-0.7,0.4-1c0.5-0.4,0.8-1,0.6-1.6C10,8.1,10.1,7.9,10.4,8c0.4,0,0.5-0.2,0.5-0.5c0-0.2,0-0.4,0-0.7c0-0.3-0.1-0.5-0.5-0.5
	c-0.3,0-0.5-0.1-0.4-0.4c0.2-0.8-0.2-1.2-0.8-1.5C9.1,4.3,8.9,4.2,8.8,4.1c0.3-0.2,0.6-0.4,0.8-0.6c0.7-0.5,0.6-1.8-0.2-2.2
	c-0.9-0.4-1.8-0.4-2.7,0C6.2,1.4,5.9,1.8,5.9,2.4c0,0.6,0.2,1,0.7,1.3c0.2,0.1,0.4,0.2,0.6,0.5C6.4,4.5,5.7,5,5.9,6.1
	c0,0.2-0.2,0.2-0.3,0.2C5.2,6.2,5.1,6.4,5.1,6.8c0,0.3,0,0.5,0,0.8C5.1,7.9,5.2,8,5.5,8C5.9,7.9,6,8.1,6,8.5C5.9,9,6,9.5,6.4,9.8
	C6.6,10,7,10.3,7,10.5c0.1,1,0,2,0,3c-0.6-1.2-1.1-2.3-2.1-3.1c0.6,1.2,0.8,2.5,0.7,3.8c-0.5-0.7-0.8-1.5-1.6-2.1
	c0.4,1.6,0.4,2.1,0.2,2.8c-0.4-1.2-0.8-2.4-1.8-3.3c0.2,0.5,0.4,1.1,0.5,1.6c0.1,0.6,0.1,1.2,0.1,1.9c-0.4-0.6-0.7-1.2-1.4-1.6
	C1.8,14,2,14.4,2,14.7c0,0.5,0.2,0.7,0.7,0.6c0.1,0,0.2,0,0.4,0c2.6,0,10,0,10.6,0c0.2,0,0.3-0.1,0.3-0.3
	C13.9,14.3,13.9,13.7,14.2,12.9z"/>
  </g>
  <g id="drops" class="drops">
    <path d="M2.8,5.9c-0.4,0-0.7-0.1-0.7-0.6c0-0.4,0.3-0.5,0.7-0.5c0.4,0,0.7,0.1,0.7,0.6C3.6,5.8,3.2,5.9,2.8,5.9z"/>
    <path d="M0.7,2.5C0.3,2.6,0,2.4,0,2c0-0.4,0.3-0.5,0.7-0.6c0.4,0,0.8,0.1,0.8,0.6C1.5,2.4,1.1,2.5,0.7,2.5z"/>
    <path d="M2.8,3.5c-0.4,0-0.7-0.1-0.7-0.6c0-0.5,0.4-0.5,0.8-0.5c0.4,0,0.7,0.1,0.7,0.6C3.6,3.4,3.2,3.5,2.8,3.5z"/>
    <path d="M0.7,6.8C0.3,6.8,0,6.7,0,6.2c0-0.4,0.4-0.5,0.8-0.5c0.4,0,0.7,0.2,0.7,0.6C1.5,6.7,1.1,6.8,0.7,6.8z"/>
    <path d="M0.7,4.7C0.3,4.7,0,4.6,0,4.1c0-0.4,0.3-0.6,0.7-0.6c0.4,0,0.7,0.1,0.7,0.6C1.5,4.6,1.1,4.7,0.7,4.7z"/>
    <path d="M5,4.7c-0.4,0-0.8-0.1-0.8-0.5c0-0.5,0.3-0.6,0.7-0.6c0.4,0,0.7,0.1,0.7,0.6C5.7,4.6,5.3,4.7,5,4.7z"/>
    <path d="M15.3,2.6c-0.4,0-0.8-0.1-0.8-0.6c0-0.5,0.4-0.5,0.8-0.5C15.7,1.4,16,1.5,16,2C16,2.5,15.7,2.5,15.3,2.6z"/>
    <path d="M13.2,2.4c0.4,0,0.8,0.1,0.7,0.6c0,0.4-0.4,0.5-0.7,0.5c-0.4,0-0.8-0.1-0.7-0.6C12.4,2.5,12.8,2.4,13.2,2.4z"/>
    <path d="M13.2,5.9c-0.5,0-0.8-0.1-0.8-0.6c0-0.4,0.3-0.6,0.7-0.6c0.4,0,0.7,0.1,0.8,0.5C13.9,5.8,13.6,5.9,13.2,5.9z"/>
    <path d="M15.3,4.7c-0.4,0-0.7-0.1-0.7-0.5c0-0.4,0.3-0.6,0.7-0.6c0.4,0,0.7,0.1,0.7,0.6C16,4.6,15.7,4.7,15.3,4.7z"/>
    <path d="M11.1,4.7c-0.4,0-0.7-0.1-0.7-0.5c0-0.4,0.3-0.6,0.7-0.6c0.4,0,0.7,0.1,0.8,0.5C11.8,4.6,11.5,4.7,11.1,4.7z"/>
    <path d="M15.3,6.8c-0.4,0-0.7-0.1-0.7-0.6c0-0.4,0.3-0.5,0.7-0.5c0.4,0,0.7,0.1,0.7,0.6C16,6.8,15.6,6.8,15.3,6.8z"/>
  </g>
</svg>
