<?xml version="1.0" encoding="utf-8"?>
<!DOCTYPE svg PUBLIC "-//W3C//DTD SVG 1.1//EN" "http://www.w3.org/Graphics/SVG/1.1/DTD/svg11.dtd">
<svg version="1.1" id="Layer_1" xmlns="http://www.w3.org/2000/svg" xmlns:xlink="http://www.w3.org/1999/xlink" x="0px" y="0px"
	 viewBox="0 0 24 24" xml:space="preserve">
<g id="icon">
	<path style="fill:#FFFFFF;" d="M12.8,8.1c0,2,0,4,0,6c0,0.5,0.1,0.8,0.5,1c1.9,1.4,2.5,3.8,1.6,5.9c-0.9,2.1-3.1,3.2-5.5,2.8
		c-2.2-0.4-3.8-2.4-3.8-4.7c0-1.7,0.7-3.1,2.1-4.1c0.4-0.3,0.5-0.6,0.5-1c0-3.2,0-6.5,0-9.7c0-1.1,0.7-2,1.6-2.3
		c1-0.3,2,0.1,2.6,0.9c0.3,0.5,0.4,1,0.4,1.6C12.8,5.8,12.8,7,12.8,8.1C12.8,8.1,12.8,8.1,12.8,8.1z M9.7,8.4
		C9.7,8.4,9.7,8.4,9.7,8.4c0,1.3,0,2.5-0.1,3.8c0,0.5,0.2,0.7,0.6,0.6c0.4-0.1,1.1,0.1,1-0.6c-0.2-2.5,0-5-0.1-7.5
		c0-0.6-0.1-1.1-0.8-1.1c-0.6,0-0.8,0.5-0.8,1.1C9.7,5.9,9.7,7.2,9.7,8.4z M13.5,19.4c0.5-0.9,0.4-1.8-0.2-2.5
		c-0.6-0.7-1.3-0.9-2.2-0.6C12.3,17,13.1,18,13.5,19.4z"/>
	<path style="fill:#FFFFFF;" d="M4.9,3.5c0.3,0,0.6,0,0.9,0c0.8-0.1,0.9,0.2,0.9,0.9c0,0.5-0.2,0.6-0.6,0.6c-0.8,0-1.7,0-2.5,0
		C2.9,5.1,3,4.7,3,4.4c0-0.3-0.2-0.9,0.5-0.8C4,3.6,4.4,3.5,4.9,3.5z"/>
	<path style="fill:#FFFFFF;" d="M4.9,14.3c-0.3,0-0.6,0-0.9,0c-0.8,0.1-1-0.3-0.9-1c0-0.4,0.1-0.6,0.6-0.6c0.8,0,1.6,0,2.4,0
		c0.4,0,0.5,0.1,0.6,0.5c0.2,1.1,0.2,1.1-0.9,1.1C5.4,14.3,5.1,14.3,4.9,14.3z"/>
	<path style="fill:#FFFFFF;" d="M5.3,11.2c-0.2,0-0.3,0-0.5,0C4.1,11.4,4,11,4,10.4c0-0.7,0.3-0.8,0.8-0.8c0.3,0,0.6,0,0.8,0
		c0.8-0.1,1.1,0.2,1,1c0,0.4-0.1,0.6-0.6,0.6C5.8,11.2,5.6,11.2,5.3,11.2z"/>
	<path style="fill:#FFFFFF;" d="M5.3,8.1c-0.2,0-0.4,0-0.6,0C4.1,8.3,4,7.9,4,7.3c0-0.6,0.2-0.8,0.8-0.7c0.3,0,0.6,0,0.9,0
		c1,0,1,0,1,1c0,0.4-0.2,0.5-0.6,0.5C5.9,8.1,5.6,8.1,5.3,8.1z"/>
</g>
</svg>
