<?xml version="1.0" encoding="utf-8"?>
<!DOCTYPE svg PUBLIC "-//W3C//DTD SVG 1.1//EN" "http://www.w3.org/Graphics/SVG/1.1/DTD/svg11.dtd">
<svg version="1.1" id="Layer_1" xmlns="http://www.w3.org/2000/svg" xmlns:xlink="http://www.w3.org/1999/xlink" x="0px" y="0px"
	 viewBox="0 0 24 24" xml:space="preserve">
<path style="fill:#FFFFFF;" d="M7,10.4c1.2-0.3,2.4-0.6,3.6-0.9c1.2-0.3,2.3-0.6,3.6-0.9C11.2,13.8,8.2,18.9,5.2,24c0,0-0.1,0-0.1,0
	c0.1-0.5,0.2-1,0.3-1.5c0.8-3.2,1.5-6.4,2.3-9.6c0.1-0.4,0-0.4-0.3-0.3c-1.3,0.4-2.6,0.7-3.9,1.1c-0.1,0-0.2,0.1-0.4,0.1
	c0.3-1,0.7-1.9,1-2.8c1-2.8,2-5.7,3-8.5C7,2.2,7.1,2,7.4,2c1.8,0,3.6,0,5.4,0c0.1,0,0.1,0,0.2,0.1C11,4.8,9,7.6,7,10.4
	C7,10.3,7,10.4,7,10.4z"/>
</svg>
