<?xml version="1.0" encoding="utf-8"?>
<!DOCTYPE svg PUBLIC "-//W3C//DTD SVG 1.1//EN" "http://www.w3.org/Graphics/SVG/1.1/DTD/svg11.dtd">
<svg version="1.1" id="Layer_1" xmlns="http://www.w3.org/2000/svg" xmlns:xlink="http://www.w3.org/1999/xlink" x="0px" y="0px"
	 viewBox="0 0 24 24" xml:space="preserve">
<g id="light_x">
	<path style="fill:#FFFFFF;" d="M16.5,8.5c-0.5-2.4-2.5-4.3-5.1-4.7C9,3.4,6.5,4.5,5.2,6.7c-1.3,2.2-1.1,4.5,0.6,6.6
		c1,1.2,1.6,2.5,1.7,4c0,0.4,0.2,0.6,0.6,0.6c0.8,0,3.8,0,4.5,0.1c0.5,0,0.8-0.2,0.8-0.7c0.1-1.7,0.9-2.9,1.9-4.2
		C16.5,11.8,16.9,10.2,16.5,8.5z M7.8,11.6c0.6,1,1.1,2.1,0.8,3.3c-0.4-1.3-1.5-2.3-2.2-3.4c-1.3-2.1,0-5,2.5-5.8
		c0.3-0.1,0.6-0.1,0.9-0.2C9.3,6,8.7,6.5,8.2,7.1C7.2,8.5,6.9,10,7.8,11.6z"/>
	<path style="fill:#FFFFFF;" d="M10.5,23.5c-0.6-0.1-1-0.3-1.2-0.9c-0.1-0.4-0.3-0.5-0.6-0.5c-0.4,0-0.8-0.2-0.8-0.7
		c0-0.5,0.4-0.7,0.9-0.7c1.2,0,2.4,0,3.6,0c0.4,0,0.8,0.2,0.8,0.7c0,0.5-0.3,0.7-0.8,0.7c-0.4,0-0.6,0.1-0.7,0.5
		C11.6,23.2,11.1,23.5,10.5,23.5z"/>
	<path style="fill:#FFFFFF;" d="M10.5,20.3c-0.6,0-1.2,0-1.8,0c-0.5,0-0.9-0.2-0.9-0.7c0-0.6,0.4-0.7,0.9-0.7c1.2,0,2.5,0,3.7,0
		c0.5,0,0.9,0.1,0.9,0.7c0,0.6-0.4,0.7-0.9,0.8C11.7,20.3,11.1,20.3,10.5,20.3z"/>
	<path style="fill:#FFFFFF;" d="M17.7,10.3c0,0.3,0.1,0.4,0.4,0.3c0.9-0.2,1.9-0.5,2.9-0.8c-0.1-0.1-0.2-0.1-0.3-0.2
		c-0.6-0.1-1.2-0.3-1.7-0.4C17.6,8.9,17.7,8.9,17.7,10.3z"/>
	<path style="fill:#FFFFFF;" d="M3.2,9.2c0,0,0-0.1-0.1-0.2C2.1,9.3,1,9.5,0,9.8C0,9.9,0,9.9,0,10c0.6,0.1,1.1,0.3,1.7,0.4
		C3.2,10.8,3.2,10.8,3.2,9.2z"/>
	<path style="fill:#FFFFFF;" d="M12.5,1.7c-0.7,1.1-0.7,1.1,0.6,1.5c0.4,0.1,0.5,0,0.5-0.3c0.1-0.9,0.1-1.9,0.2-2.8
		c0,0-0.1,0-0.1-0.1C13.2,0.6,12.9,1.1,12.5,1.7z"/>
	<path style="fill:#FFFFFF;" d="M15.9,14.7c1,0.4,2,0.9,3,1.3c-0.3-0.6-0.6-1-1-1.5C16.9,13.3,16.9,13.3,15.9,14.7z"/>
	<path style="fill:#FFFFFF;" d="M2,3.9c0.3,0.4,0.7,0.9,1,1.3c1.1,1.3,1.1,1.3,2.1-0.2c-1-0.4-2-0.8-3-1.2C2.1,3.8,2,3.8,2,3.9z"/>
	<path style="fill:#FFFFFF;" d="M7.2,0.1c0,0.6,0.1,1.1,0.1,1.7c0.1,1.7,0.1,1.7,1.6,1.1c0,0,0.1-0.1,0.1-0.1C8.5,1.8,7.9,0.9,7.3,0
		C7.3,0,7.2,0.1,7.2,0.1z"/>
	<path style="fill:#FFFFFF;" d="M4,13.4c-0.7,0.8-1.4,1.7-2.1,2.5C1.9,16,2,16,2,16.1c0.5-0.2,1.1-0.4,1.6-0.7
		c0.5-0.2,1.2-0.3,1.3-0.7c0.1-0.3-0.5-0.8-0.8-1.2C4.1,13.5,4,13.5,4,13.4z"/>
	<path style="fill:#FFFFFF;" d="M17.1,6c0.6-0.7,1.2-1.5,1.8-2.2c0,0-0.1-0.1-0.1-0.1C18.2,4,17.6,4.2,17,4.4C15.7,5,15.7,5,16.6,6
		C16.8,6.3,16.9,6.2,17.1,6z"/>
</g>
</svg>
