<?xml version="1.0" encoding="utf-8"?>
<!DOCTYPE svg PUBLIC "-//W3C//DTD SVG 1.1//EN" "http://www.w3.org/Graphics/SVG/1.1/DTD/svg11.dtd">
<svg version="1.1" id="Layer_1" xmlns="http://www.w3.org/2000/svg" xmlns:xlink="http://www.w3.org/1999/xlink" x="0px" y="0px"
	 viewBox="0 0 24 24" xml:space="preserve">
<g id="socket_x">
	<path id="socket2_x5F_base" style="fill:#FFFFFF;" d="M12,22c-2.5,0-5,0-7.5,0C2.9,22,2,21.1,2,19.5c0-5,0-10,0-15
		C2,2.9,2.9,2,4.5,2c5,0,10,0,15,0C21.2,2,22,2.8,22,4.5c0,5,0,10,0,15c0,1.7-0.8,2.5-2.5,2.5C17,22,14.5,22,12,22z M18.3,12
		c0-3.4-2.9-6.3-6.3-6.3c-3.4,0-6.4,3-6.4,6.4c0,3.4,2.9,6.3,6.3,6.3C15.4,18.4,18.4,15.4,18.3,12z"/>
	<path id="hole_2_" style="fill:#FFFFFF;" d="M10.2,12c0,0.6-0.3,0.9-0.9,0.9c-0.5,0-0.8-0.3-0.9-0.9c0-0.6,0.3-0.9,0.9-0.9
		C9.8,11.1,10.1,11.4,10.2,12z"/>
	<path id="hole_3_" style="fill:#FFFFFF;" d="M14.8,12.9c-0.6-0.1-0.9-0.3-0.9-0.9c0-0.6,0.3-0.9,0.9-0.9c0.6,0,0.9,0.4,0.9,1
		C15.6,12.6,15.2,12.8,14.8,12.9z"/>
</g>
</svg>
